<svg xmlns="http://www.w3.org/2000/svg" viewBox="0 0 207.72 148.52"><defs><style>.cls-1{fill:#ffed00;}.cls-2{fill:#1d1d1b;}.cls-3{font-size:75px;fill:#1d71b8;font-family:WizardDEMO, Wizard DEMO;}.cls-4{letter-spacing:-0.01em;}</style></defs><g id="Layer_2" data-name="Layer 2"><g id="Layer_1-2" data-name="Layer 1"><path class="cls-1" d="M42,24.29c-5.5-3.54-12-6.25-18.43-5.39S10.93,25.18,11.12,31.72c.12,4.51,4.64,9.08,8.85,7.44C15.37,40.44,10.8,43,8.75,47.32s-.46,10.46,4.05,12A11.26,11.26,0,0,0,2.51,70.67,11.24,11.24,0,0,0,13.86,80.94C7.85,83.56,3.2,89.71,3.5,96.26s6.4,12.6,12.91,11.84c-5.2,1.37-8,7.74-6.57,12.92s6.17,9,11.3,10.57,10.65,1.36,16,.79c-3.14,1.34-3,6.27-.58,8.64s6.14,2.83,9.55,3.07c13.32.94,27.83,0,38.15-8.5,1.43,4,5.19,6.72,9.2,8s8.3,1.32,12.51,1.34c7.94,0,16.67-.21,22.58-5.5,2.39,6.27,10.86,7,17.54,6.41,4.21-.37,8.81-1,11.66-4.16s3.08-7.45,3.26-11.53c3.09,6.4,11,9.59,18,8.4,4.59-.79,9.05-3.4,11.15-7.55s1.28-9.84-2.47-12.59c3.45-.1,7-.23,10.15-1.67s5.79-4.55,5.59-8c-.3-5.19-6.17-7.89-11.12-9.48,3.43-2.6,7-5.5,8.31-9.61s-1.12-9.59-5.42-9.79c2.94-1.08,6-2.26,8.1-4.61s2.74-6.28.58-8.56a9.64,9.64,0,0,0-2.95-1.88l-9.29-4.42c4.12-2,8.38-6.46,6.25-10.5a8.77,8.77,0,0,0-3-2.93A49.47,49.47,0,0,0,178,39.48a19.43,19.43,0,0,0-1.44-20,19.43,19.43,0,0,0-18.49-7.63,32.94,32.94,0,0,1-4.16.64,15.07,15.07,0,0,1-5-.95c-4.37-1.44-8.6-3.42-13.15-4.11s-9.68.16-12.75,3.59c-1.15,1.28-2.08,2.95-3.71,3.52-2.84,1-5.38-1.89-7.43-4.1a25,25,0,0,0-38.36,2,8.32,8.32,0,0,1-2.42,2.55c-2.18,1.18-4.91-.22-6.6-2s-3-4.1-5.09-5.38c-3.71-2.23-8.78-.41-11.56,2.91S44,18.27,43.1,22.49"/><path class="cls-2" d="M43.29,22.13C36,17.5,26.81,14.18,18.43,17.82c-6.9,3-12.3,11.13-8.59,18.54,1.94,3.86,6.46,6.73,10.8,5.21,3-1,1.8-5.71-1.33-4.82C13.58,38.38,7.48,42,5.8,48.12c-1.48,5.43.91,11.61,6.34,13.63l.66-4.92C5.84,57.3-.34,63.5,0,70.67A13.78,13.78,0,0,0,13.86,83.44L12.6,78.78C5.76,81.85.29,89.23,1.05,97c.75,7.47,7.53,14.42,15.36,13.64l-.66-4.91c-6.51,1.85-9.87,9.17-8.43,15.53,1.61,7.15,8.56,11.92,15.38,13.36a46,46,0,0,0,14.44.3l-1.26-4.66C32,132,31.52,137,33.18,140.52c2,4.28,7.1,5.51,11.4,5.94,9.09.91,18.76.7,27.58-1.89A39.55,39.55,0,0,0,86,137.36l-4.18-1.1c2.73,7.17,9.92,10.2,17.09,10.92a89.55,89.55,0,0,0,11.11.23,50,50,0,0,0,10.14-1.12,23.36,23.36,0,0,0,10.13-5.08l-4.18-1.1c2.53,6.31,9.11,8.22,15.39,8.39a42.9,42.9,0,0,0,9.92-.88,14.45,14.45,0,0,0,9.17-5.55c2.41-3.43,2.7-7.87,2.89-11.91l-4.66,1.26c3.31,6.63,11,10.28,18.28,9.85,7.82-.47,15.7-5.58,16.59-13.84A12.29,12.29,0,0,0,189,116.26l-1.26,4.66c4.1-.12,8.4-.33,12.08-2.34a11.5,11.5,0,0,0,6.15-8.91c.55-7.27-7.18-10.94-12.95-12.81l.6,4.57C198,98.05,203,94,203.43,88c.38-5.07-3-10.22-8.23-10.62l.66,4.91c5.53-2,12-5.28,11.85-12.19A8.07,8.07,0,0,0,202.9,63c-3.29-1.66-6.67-3.17-10-4.76v4.32A15.49,15.49,0,0,0,200,56a7.86,7.86,0,0,0-1.49-9.35c-2.54-2.47-6-4.29-9.21-5.81a53.87,53.87,0,0,0-10.6-3.75l1.49,3.67A22.09,22.09,0,0,0,181,22.52a21.54,21.54,0,0,0-13.19-12.24,21,21,0,0,0-9-1c-1.63.19-3.25.71-4.89.75a15.33,15.33,0,0,1-5.2-1.15c-6.5-2.25-12.95-5.17-20-3.7A13.93,13.93,0,0,0,121,9.55c-.67.79-1.39,2.19-2.37,2.62s-1.92-.43-2.61-1c-1.06-.92-2-2-2.94-3a28.13,28.13,0,0,0-3.85-3.21,27.61,27.61,0,0,0-35,2.94,29.48,29.48,0,0,0-2.92,3.39c-.69.92-1.28,2-2.55,1.67-1.53-.34-2.63-1.7-3.57-2.85a22.54,22.54,0,0,0-3.42-3.75,10.21,10.21,0,0,0-9.7-1.55c-7.44,2.53-9.9,10.08-11.45,17C40,25,44.81,26.3,45.51,23.16c1.11-5,2.48-11.65,8-13.56a5.34,5.34,0,0,1,6,1.29C61.53,13,62.94,15.64,65.68,17a6.87,6.87,0,0,0,8.67-1.49c1.81-2.12,3.34-4.29,5.62-6a22.45,22.45,0,0,1,30.41,2.95c2,2.12,4.22,4.45,7.28,4.73,3.31.3,5.1-2.08,7-4.29,3.85-4.4,10.38-3.46,15.33-1.89,3.23,1,6.33,2.43,9.59,3.33a14.15,14.15,0,0,0,5.25.56c1.57-.17,3.11-.63,4.69-.75a17,17,0,0,1,15.1,6.88,17,17,0,0,1,1.21,17.13,2.53,2.53,0,0,0,1.5,3.67,47.78,47.78,0,0,1,16.3,7.24c1.59,1.1,2.83,2.4,2,4.32-.95,2.22-3.21,3.77-5.29,4.79a2.52,2.52,0,0,0,0,4.32l8,3.79c1.56.74,4,1.41,4.35,3.4.68,4.46-4.92,6.52-8.16,7.71a2.51,2.51,0,0,0,.67,4.91,3.39,3.39,0,0,1,2.5,1.92,6.39,6.39,0,0,1,.69,4c-.7,3.86-4.42,6.64-7.34,8.86a2.54,2.54,0,0,0,.6,4.57c3.55,1.15,9.49,3.33,9.29,7.63-.12,2.37-2.16,4.26-4.19,5.2-2.8,1.3-6.05,1.32-9.06,1.41a2.56,2.56,0,0,0-2.41,1.84,2.61,2.61,0,0,0,1.14,2.82c2.49,1.9,2.87,5.77,1.86,8.51-1.19,3.27-4.39,5.49-7.6,6.49-6.49,2-14.37-.39-17.51-6.68-1.17-2.35-4.55-1.06-4.66,1.26-.15,3.37-.25,7.47-2.79,10-2.39,2.42-6.22,2.85-9.45,3.14A28.87,28.87,0,0,1,137,143c-2.56-.6-5.07-1.79-6-4.18a2.53,2.53,0,0,0-4.17-1.1c-5.44,4.75-13.43,4.78-20.24,4.76-4.29,0-8.68,0-12.78-1.37-3-1-6-3.12-7.1-6.14a2.55,2.55,0,0,0-4.18-1.11c-5.83,4.74-13.36,6.94-20.73,7.68a82.65,82.65,0,0,1-11.67.3c-3.41-.12-7.57,0-10.63-1.72a4,4,0,0,1-2.19-2.92,2.82,2.82,0,0,1,.19-1.81c-.06.14.28-.41.23-.36.31-.33.23-.23.71-.46,2.19-1,1.18-4.91-1.26-4.65-7.76.82-16.9,1.06-22.56-5.29a9.51,9.51,0,0,1-2.46-8c.56-2.76,2.23-5.27,5-6s2.24-5.2-.66-4.91c-5.27.52-10.17-4.09-10.41-9.34-.27-5.89,4-10.85,9.12-13.16,2.31-1,1.1-4.73-1.26-4.66-4.31.14-8.58-3.36-8.85-7.77a8.73,8.73,0,0,1,7.79-8.84,2.51,2.51,0,0,0,.67-4.91c-2.9-1.07-3.7-5.28-2.66-8.07,1.47-4,6-6.18,9.83-7.28l-1.33-4.82c-2.76,1-5.36-2-5.68-4.68-.37-3.24,1.74-6.36,4.24-8.2,7.12-5.26,16.26-1.65,22.89,2.58,2.73,1.74,5.24-2.59,2.53-4.32Z"/><text class="cls-3" transform="translate(34.64 114.7)"><tspan class="cls-4">D</tspan><tspan x="44.03" y="0">LA</tspan></text></g></g></svg>