<svg xmlns="http://www.w3.org/2000/svg" viewBox="0 0 481.87 338.72"><defs><style>.cls-1{fill:#1d1d1b;}</style></defs><g id="Layer_2" data-name="Layer 2"><g id="Layer_1-2" data-name="Layer 1"><path class="cls-1" d="M75.37,42.17c0,21.87-14.06,37.1-37.49,37.1H9V5.08h28.9C61.9,5.08,75.37,19.72,75.37,42.17Zm-17.18,0c0-14.44-7.23-23-20.7-23H25.77V65.21H37.49C51,65.21,58.19,56.62,58.19,42.17Z"/><path class="cls-1" d="M88.45,0h16.79V13.28H88.45ZM89,20.7h15.62V79.27H89Z"/><path class="cls-1" d="M115.2,71.46l8-11.13c4.49,4.1,11.13,6.84,19.14,6.84,5.27,0,9.76-1.37,9.76-4.49,0-2.54-2.15-3.91-12.11-6.25-15.42-3.71-22.06-9.37-22.06-18.75,0-10.93,9.57-18,24.6-18a42.19,42.19,0,0,1,23.63,7.22l-8,11.33a26.57,26.57,0,0,0-17-5.66c-5.08,0-8.4,1.56-8.4,4.49,0,2.73,2.34,4.1,10.74,6,17.18,4.1,23.62,9.18,23.62,18.94,0,11.52-9.17,18.16-25.38,18.16C131.21,80.25,121.44,76.93,115.2,71.46Z"/><path class="cls-1" d="M197.59,33.58V59.16c0,5.08,2.74,6.83,7.42,6.83a35.46,35.46,0,0,0,9.37-1V78.88a48.52,48.52,0,0,1-12.88,1.56c-12.3,0-19.53-5.85-19.53-17.57V33.58H170.26V20.7H182l1.56-15.62h14.06V20.7h16.79V33.58Z"/><path class="cls-1" d="M278.62,65.8V79.27a31.77,31.77,0,0,1-5.66.39c-7.22,0-11.13-2.73-12.3-8.78-4.1,5.85-11.72,9.37-20.31,9.37-11.52,0-19.13-6.84-19.13-17,0-15.23,14.25-18,25.19-19.33,6.63-.78,11.91-1.76,11.91-5.27,0-3.71-3.91-6.25-10.55-6.25a22.15,22.15,0,0,0-16,6.84l-9.37-9.57q10.55-10,26.36-10C264,19.72,273,27.14,273,39.44v23a3,3,0,0,0,3.32,3.32Zm-20.7-9.37V51.35c-2.34,1.37-5.66,1.95-10,2.73-6.06,1-11.72,2-11.72,7.62,0,3.9,2.74,6.25,7.62,6.25C251.68,68,257.92,62.87,257.92,56.43Z"/><path class="cls-1" d="M345.59,42.17v37.1H330V45.69c0-8.4-3.9-13.08-10.54-13.08C312,32.61,306,38.07,306,45.88V79.27H290.34V20.7h14.05l.59,8.2a24.64,24.64,0,0,1,19.52-9.18C337,19.72,345.59,28.7,345.59,42.17Z"/><path class="cls-1" d="M356.53,50c0-18.15,12.1-30.26,30.26-30.26,13.47,0,23.82,6.44,27.14,17.57l-14.84,4.49c-2.15-5.85-6.44-9.17-12.5-9.17-8.59,0-14,6.64-14,17.37s5.46,17.38,14,17.38c6.06,0,10.35-3.32,12.5-9.17l14.84,4.49c-3.32,11.13-13.67,17.57-27.14,17.57C368.63,80.25,356.53,68.14,356.53,50Z"/><path class="cls-1" d="M458.35,64.3c6.09-3.51,9.38-8.35,10.54-13.75l13,3.33c-1.95,8.34-7.44,16-17.25,21.68-17.58,10.15-33,4.17-41.68-10.88-9-15.56-5-32.07,10.57-41.05,15.39-8.89,31.15-4.23,40.33,11.66a20.44,20.44,0,0,1,2,4.69l-37,21.38C444.1,67.34,451.08,68.5,458.35,64.3Zm-25-12.84,23.84-13.77c-5.06-5.64-11.17-6.85-17.43-3.24S431.26,44.32,433.35,51.46Z"/><path class="cls-1" d="M62.09,184v15.23H9V125H25.77v59Z"/><path class="cls-1" d="M103.62,183.87c6.09-3.51,9.38-8.34,10.54-13.75l13,3.33c-2,8.34-7.44,16-17.25,21.68-17.58,10.16-33,4.17-41.68-10.88-9-15.56-5-32.07,10.57-41.05,15.39-8.88,31.15-4.23,40.33,11.66a20.44,20.44,0,0,1,2,4.69l-37,21.38C89.37,186.92,96.35,188.07,103.62,183.87ZM78.62,171l23.84-13.77C97.4,151.62,91.29,150.41,85,154S76.53,163.89,78.62,171Z"/><path class="cls-1" d="M187.64,185.76v13.47a32,32,0,0,1-5.67.39c-7.22,0-11.13-2.73-12.3-8.78-4.1,5.86-11.71,9.37-20.3,9.37-11.52,0-19.14-6.83-19.14-17,0-15.23,14.25-18,25.19-19.33,6.64-.78,11.91-1.75,11.91-5.27,0-3.71-3.91-6.25-10.54-6.25a22.21,22.21,0,0,0-16,6.84l-9.37-9.57q10.54-10,26.36-10C173,139.68,182,147.1,182,159.4v23a3,3,0,0,0,3.32,3.32Zm-20.7-9.37v-5.08c-2.34,1.37-5.66,2-10,2.74-6,1-11.71,1.95-11.71,7.61,0,3.91,2.73,6.25,7.61,6.25C160.69,187.91,166.94,182.83,166.94,176.39Z"/><path class="cls-1" d="M238.79,140.46l-.19,14.45a83.17,83.17,0,0,0-9.38-.58c-8.59,0-14.25,4.1-14.25,13.08v31.82H199.35V140.66h14.06l.78,8.78c3.9-5.85,10.93-9.56,19.33-9.56A24.24,24.24,0,0,1,238.79,140.46Z"/><path class="cls-1" d="M304.2,162.14v37.09H288.58V165.65c0-8.4-3.91-13.08-10.54-13.08a13.1,13.1,0,0,0-13.48,13.28v33.38H248.94V140.66H263l.59,8.2a24.67,24.67,0,0,1,19.52-9.18C295.61,139.68,304.2,148.66,304.2,162.14Z"/><path class="cls-1" d="M319.62,120h16.8v13.28h-16.8Zm.59,20.7h15.62v58.57H320.21Z"/><path class="cls-1" d="M408.07,162.14v37.09H392.45V165.65c0-8.4-3.9-13.08-10.54-13.08a13.09,13.09,0,0,0-13.47,13.28v33.38H352.82V140.66h14.05l.59,8.2A24.68,24.68,0,0,1,387,139.68C399.48,139.68,408.07,148.66,408.07,162.14Z"/><path class="cls-1" d="M477.78,140.66v50.76c0,17.19-10.94,28.31-30.46,28.31-11.33,0-19.53-2.73-25-7.61l7-11.13c4.89,3.91,10.35,5.86,17.58,5.86,11.32,0,16-6,16-15v-4.1a23.92,23.92,0,0,1-18.75,8.4C429,196.11,419,184.79,419,167.8s10.15-28.12,25.18-28.12c8,0,14.45,3.13,18.94,8.4l.59-7.42Zm-15,27.53c0-9.76-5.07-15.62-13.86-15.62-8.59,0-14.06,6.05-14.06,15.62,0,10,5.47,16,14.06,16C457.67,184.2,462.74,178.15,462.74,168.19Z"/><path class="cls-1" d="M55.26,304.55H22.84l-5.27,14.64H0L28.9,245H49.59l28.9,74.19h-18ZM50,290.1,39.05,259.64,28.12,290.1Z"/><path class="cls-1" d="M146.24,289.91c0,18.16-10.15,30.26-25,30.26a23.84,23.84,0,0,1-18.16-7.81v26.36H87.47v-78.1h14.06l.78,8.2a23,23,0,0,1,18.94-9.18C136.48,259.64,146.24,271.55,146.24,289.91Zm-15.81,0c0-10.74-5.27-17.38-14.06-17.38s-13.86,6.64-13.86,17.38,5.07,17.37,13.86,17.37S130.43,300.65,130.43,289.91Z"/><path class="cls-1" d="M216.92,289.91c0,18.16-10.15,30.26-25,30.26a23.84,23.84,0,0,1-18.16-7.81v26.36H158.15v-78.1h14.06l.78,8.2a23,23,0,0,1,18.94-9.18C207.16,259.64,216.92,271.55,216.92,289.91Zm-15.81,0c0-10.74-5.27-17.38-14.06-17.38s-13.86,6.64-13.86,17.38,5.07,17.37,13.86,17.37S201.11,300.65,201.11,289.91Z"/></g></g></svg>