<svg xmlns="http://www.w3.org/2000/svg" viewBox="0 0 379.39 344.21"><defs><style>.cls-1{fill:#fff;}</style></defs><g id="Layer_2" data-name="Layer 2"><g id="svg2"><path d="M61.35,92.71,0,69.7,56.62,48.58c42.63-15.92,85.24-31.92,128-47.64A16.23,16.23,0,0,1,194.94.77q90.82,33.54,181.48,67.58c.77.28,1.48.73,3,1.47-8.1,3.06-15.66,5.93-23.23,8.77Q275,109,193.82,139.24a12.33,12.33,0,0,1-7.87,0c-37.74-13.93-75.4-28.07-113.08-42.15-1.22-.46-2.47-.82-4.33-1.42,0,6.87-.12,13.27.11,19.66,0,1.21,1.31,2.52,2.27,3.53,2.9,3,3,6.3,1.52,10.07a25.24,25.24,0,0,0-1.84,7.48c-1.74,23.61,2.53,46.84,4.51,70.22.61,7.11,1.36,14.21,2,21.31a5.49,5.49,0,0,1,0,1c-.46,4.32-6,7.21-13.32,7-6.78-.22-10.76-3-10.46-7.94.49-8.44,1.41-16.86,2.22-25.28,1.62-17,3.86-34,4.7-51,.39-7.93-2.14-16-2.89-24-.25-2.73.76-5.64,1.48-8.4.59-2.22,2.22-4.3,2.32-6.49C61.55,106.22,61.35,99.73,61.35,92.71Z"/><path d="M93.28,113.4c12.11,4.48,23.58,8.7,35,13,18.91,7.08,37.76,14.34,56.77,21.15a15.68,15.68,0,0,0,9.86-.06c28.76-10.52,57.4-21.36,86.08-32.09,1.66-.62,3.39-1,4.81-1.47,0,15.07,1,29.91-.34,44.52-1.06,11.27-8.92,19.71-17.69,26.78-15.58,12.58-34,18.37-53.29,21.58-26,4.34-51.66,2.29-76.4-7-15.89-6-30.79-14.07-39.24-29.7a48.67,48.67,0,0,1-5.35-19.31C92.68,138.72,93.28,126.55,93.28,113.4Z"/><rect class="cls-1" x="43.57" y="195.75" width="40.12" height="40.12"/><path d="M15.24,259.82h41.7C58.38,265,54,274,64.65,273.52c5.3-.22,5.93-1.64,6.78-12.7h41.35a16.15,16.15,0,0,1,.32,3.13c-.28,14.59.64,29.34-1.2,43.73-2.44,19.13-22.08,35-41.46,36.33-16.41,1.15-31.06-2.43-42.78-14.45-8-8.23-12.62-18.09-12.46-29.93C15.37,286.55,15.24,273.47,15.24,259.82Z"/><path d="M71.16,253.82c0-3.32.43-6.37-.14-9.22-.45-2.27-2.11-4.31-3.26-6.44-.48-.9-1.46-1.77-1.47-2.66-.1-11.6-.07-23.2-.07-34.78,21-1.23,50.82,17.86,46.57,53.1Z"/><path d="M61.15,200.27c0,12.06,0,23.83,0,35.6,0,.33.09.86-.08,1-6.58,4.25-2.58,11.18-4.29,17H15.82C10.09,222.05,37,200.85,61.15,200.27Z"/><path d="M67.36,255.65c0,3.49.28,7-.16,10.46-.17,1.37-2,2.53-3,3.79-1.17-1.19-3.29-2.34-3.34-3.58-.33-7.13-.32-14.29,0-21.42.06-1.32,2-2.54,3.14-3.81,1.13,1.36,3,2.61,3.23,4.1C67.7,248.62,67.36,252.16,67.36,255.65Z"/></g></g></svg>